# xmcd
#
# Track frame offsets: 
#        150
#        4472
#        20048
#        35518
#        48766
#        58885
#        69199
#        81660
#
# Disc length: 1279 seconds
#
# Revision: 0
# Processed by: cddbd v1.5.2PL0 Copyright (c) Steve Scherf et al.
# Submitted via: ExactAudioCopyFreeDBPlugin 1.0
#
DISCID=6a04fd08
DTITLE=Danitsa - Five Flags
DYEAR=2013
DGENRE=R&B
TTITLE0=Intro ft Gaspard Sommer
TTITLE1=Emily
TTITLE2=Mr Snail
TTITLE3=Ladies Revolution
TTITLE4=Addict
TTITLE5=Let Me Be
TTITLE6=Pas à pas
TTITLE7=Good Coffee ft Di-Meh
EXTD=
EXTT0=
EXTT1=
EXTT2=
EXTT3=
EXTT4=
EXTT5=
EXTT6=
EXTT7=
PLAYORDER=
